<?xml version="1.0" encoding="UTF-8"?>
<svg width="10px" height="10px" viewBox="0 0 10 10" version="1.1" xmlns="http://www.w3.org/2000/svg" xmlns:xlink="http://www.w3.org/1999/xlink">
    <title>形状结合 2</title>
    <g id="商家接单&amp;出餐流程优化" stroke="none" stroke-width="1" fill="none" fill-rule="evenodd">
        <g id="订单详情提示" transform="translate(-340.000000, -690.000000)" fill="#FFFFFF">
            <g id="编组-6" transform="translate(15.000000, 675.000000)">
                <g id="编组-7" transform="translate(13.000000, 11.000000)">
                    <g id="形状结合-2" transform="translate(312.000000, 4.000000)">
                        <path d="M9.36737364,0.108541524 C9.51209567,-0.0361805079 9.74673644,-0.0361805079 9.89145848,0.108541524 C10.0217083,0.238791352 10.0347333,0.441875362 9.93053342,0.586692026 L9.89145848,0.63262636 L5.52388889,5 L9.89145848,9.36737364 C10.0361805,9.51209567 10.0361805,9.74673644 9.89145848,9.89145848 C9.74673644,10.0361805 9.51209567,10.0361805 9.36737364,9.89145848 L5,5.52388889 L0.63262636,9.89145848 C0.502376532,10.0217083 0.299292522,10.0347333 0.154475858,9.93053342 L0.108541524,9.89145848 C-0.0217083047,9.76120865 -0.0347332876,9.55812464 0.0694665751,9.41330797 L0.108541524,9.36737364 L4.47611111,5 L0.108541524,0.63262636 C-0.0361805079,0.487904329 -0.0361805079,0.253263555 0.108541524,0.108541524 C0.253263555,-0.0361805079 0.487904329,-0.0361805079 0.63262636,0.108541524 L5,4.47611111 L9.36737364,0.108541524 Z" id="路径"></path>
                    </g>
                </g>
            </g>
        </g>
    </g>
</svg>